<svg width="294" height="294" viewBox="0 0 294 294" fill="none" xmlns="http://www.w3.org/2000/svg">
<circle cx="147" cy="147" r="147" fill="url(#paint0_linear_3_7)"/>
<circle cx="130" cy="27" r="17" fill="url(#paint1_linear_3_7)" fill-opacity="0.91"/>
<circle cx="218.796" cy="129.5" r="8.5" fill="url(#paint2_linear_3_7)" fill-opacity="0.91"/>
<path d="M112.606 54.8034C143.35 54.3597 168.634 78.9236 169.077 109.669L170.14 183.322C170.584 214.067 146.02 239.35 115.275 239.794L112.606 54.8034Z" fill="url(#paint3_linear_3_7)"/>
<path d="M27.0944 184.156L102.318 184.284L102.224 239.958L82.6742 239.925C51.9262 239.872 27.0423 214.904 27.0944 184.156Z" fill="url(#paint4_linear_3_7)"/>
<path d="M210.078 155.883C224.113 155.68 235.654 166.893 235.857 180.928L236.342 214.55C236.544 228.585 225.331 240.126 211.297 240.329L210.078 155.883Z" fill="url(#paint5_linear_3_7)"/>
<path d="M171.043 214.931L205.382 214.989L205.339 240.404L196.415 240.388C182.378 240.365 171.019 228.967 171.043 214.931Z" fill="url(#paint6_linear_3_7)"/>
<defs>
<linearGradient id="paint0_linear_3_7" x1="294" y1="147" x2="0" y2="147" gradientUnits="userSpaceOnUse">
<stop stop-color="white"/>
<stop offset="1" stop-color="white" stop-opacity="0.36"/>
</linearGradient>
<linearGradient id="paint1_linear_3_7" x1="130" y1="10" x2="130" y2="44" gradientUnits="userSpaceOnUse">
<stop stop-color="#0069FF"/>
<stop offset="1" stop-color="#0042A1"/>
</linearGradient>
<linearGradient id="paint2_linear_3_7" x1="218.796" y1="121" x2="218.796" y2="138" gradientUnits="userSpaceOnUse">
<stop stop-color="#0069FF"/>
<stop offset="1" stop-color="#0042A1"/>
</linearGradient>
<linearGradient id="paint3_linear_3_7" x1="169.609" y1="146.495" x2="113.94" y2="147.299" gradientUnits="userSpaceOnUse">
<stop stop-color="#0069FF"/>
<stop offset="1" stop-color="#0043A3" stop-opacity="0.91"/>
</linearGradient>
<linearGradient id="paint4_linear_3_7" x1="64.7062" y1="184.22" x2="64.6118" y2="239.894" gradientUnits="userSpaceOnUse">
<stop stop-color="#0069FF"/>
<stop offset="1" stop-color="#0043A3" stop-opacity="0.91"/>
</linearGradient>
<linearGradient id="paint5_linear_3_7" x1="236.099" y1="197.739" x2="210.687" y2="198.106" gradientUnits="userSpaceOnUse">
<stop stop-color="#0069FF"/>
<stop offset="1" stop-color="#0043A3" stop-opacity="0.91"/>
</linearGradient>
<linearGradient id="paint6_linear_3_7" x1="188.212" y1="214.96" x2="188.169" y2="240.375" gradientUnits="userSpaceOnUse">
<stop stop-color="#0069FF"/>
<stop offset="1" stop-color="#0043A3" stop-opacity="0.91"/>
</linearGradient>
</defs>
</svg>
