<svg width="294" height="294" viewBox="0 0 294 294" fill="none" xmlns="http://www.w3.org/2000/svg">
<circle cx="147" cy="147" r="147" fill="url(#paint0_linear_3_7)"/>
<circle cx="130" cy="27" r="17" fill="#6A2B00"/>
<circle cx="220.5" cy="137.5" r="8.5" fill="#6A2B00"/>
<path d="M112.606 54.8034C143.35 54.3597 168.634 78.9236 169.077 109.669L170.14 183.322C170.584 214.067 146.02 239.35 115.275 239.794L112.606 54.8034Z" fill="#6A2B00"/>
<path d="M27.0944 184.156L102.318 184.284L102.224 239.958L82.6742 239.925C51.9262 239.872 27.0423 214.904 27.0944 184.156Z" fill="#6A2B00"/>
<path d="M210.078 155.883C224.113 155.68 235.654 166.893 235.857 180.928L236.342 214.55C236.544 228.585 225.331 240.126 211.297 240.329L210.078 155.883Z" fill="#6A2B00"/>
<path d="M171.043 214.931L205.382 214.989L205.339 240.404L196.415 240.388C182.378 240.365 171.019 228.967 171.043 214.931Z" fill="#6A2B00"/>
<defs>
<linearGradient id="paint0_linear_3_7" x1="294" y1="147" x2="0" y2="147" gradientUnits="userSpaceOnUse">
<stop stop-color="white"/>
<stop offset="1" stop-color="white" stop-opacity="0.36"/>
</linearGradient>
</defs>
</svg>
